<svg id="レイヤー_1" data-name="レイヤー 1" xmlns="http://www.w3.org/2000/svg" viewBox="0 0 899.5 863.57"><defs><style>.cls-1,.cls-2{fill:lime;}.cls-2,.cls-3{stroke:lime;stroke-miterlimit:10;}.cls-3{fill:none;}</style></defs><title>tknk_logo</title><path class="cls-1" d="M576.25,144.43l.54,88.32L216.64,936.25,127,1008" transform="translate(-127.04 -144.43)"/><path class="cls-1" d="M576.25,144.43,1026.54,1008l-90-72L576.79,232.75" transform="translate(-127.04 -144.43)"/><path class="cls-2" d="M576.25,504.63l-.76,71.85L412.75,907.2l-54.75,27" transform="translate(-127.04 -144.43)"/><path class="cls-1" d="M790.33,935,738,900.37,575.49,575.89l.79-71.26" transform="translate(-127.04 -144.43)"/><path class="cls-1" d="M574.66,196l.14,4.41h2.9a14.66,14.66,0,0,1,0-6.39l-3-.4a57.94,57.94,0,0,0-.42,10.53c.18,3.09,1.07,6.3.95,9.38-.1,2.63-.95,5.17-1,7.83s1.87,7.72,1,10.07l2.94.39c-.2-6.33.78-12.4,1-18.69.24-6.05,0-12.13,0-18.18,0-6.32,0-12.65,0-19a51.9,51.9,0,0,0-.32-6.83c-.48-3.56-1.95-6.93-1.2-10.56l-3-.4c-.49,4.46-2.7,8.41-3.55,12.78a35.15,35.15,0,0,0-.27,11.12c.12,1,1.21,2,2.25,1.29,3.31-2.24,4.53-7.87,5.47-11.49l-2.95-.4-1,4.21,2.79.76a40.21,40.21,0,0,1,.29-8.42l-2.94-.4c-.07,2.84-.27,5.64-.6,8.47l2.56-1.06-.8-.92a1.51,1.51,0,0,0-2.56,1.06l.2,18.45a1.5,1.5,0,0,0,3,0l0-10.15a1.5,1.5,0,0,0-3,0,55.34,55.34,0,0,0,.64,10.68l2.89-.79a5.5,5.5,0,0,0-.88-2.1c-1-1.64-3.61-.13-2.6,1.52l.59,1.37c.48,1.92,3.18,1.07,2.89-.79a51.2,51.2,0,0,1-.53-9.89h-3l0,10.15h3l-.2-18.45-2.56,1.06.8.92c1,1.09,2.42.1,2.56-1.06.33-2.83.53-5.63.6-8.47,0-1.65-2.71-2.11-2.95-.4a44.4,44.4,0,0,0-.4,9.22c.09,1.36,2.09,2.19,2.8.75a12.8,12.8,0,0,0,1.45-5.72,1.5,1.5,0,0,0-2.94-.4c-.72,2.76-1.63,8-4.09,9.7l2.26,1.3a32.53,32.53,0,0,1,1.05-13.8c1-3.39,2.38-6.52,2.77-10.1.19-1.67-2.6-2-2.94-.39-1,5.07,1.15,9.88,1.38,15,.29,6.71.06,13.48.07,20.19,0,6.43.17,12.88,0,19.31-.18,6.59-1.27,12.94-1.06,19.56a1.51,1.51,0,0,0,2.95.4c.83-2.11,0-3.7-.39-5.84-.79-4.06.06-7.42.41-11.44.29-3.35-.5-6.49-.75-9.83a57.33,57.33,0,0,1,.36-11.49c.21-1.66-2.66-2.06-2.94-.4a23,23,0,0,0,0,8,1.51,1.51,0,0,0,2.9,0,15.15,15.15,0,0,0-.15-6c-.4-1.89-3.29-1.09-2.89.8Z" transform="translate(-127.04 -144.43)"/><path class="cls-1" d="M577.8,150.26l.33-.67a1.54,1.54,0,0,0-.54-2.05,1.51,1.51,0,0,0-2.05.54l-.34.66a1.51,1.51,0,1,0,2.6,1.52Z" transform="translate(-127.04 -144.43)"/><path class="cls-1" d="M575.24,184.73a19.1,19.1,0,0,1,0,7c-.36,1.89,2.53,2.7,2.9.8a23.4,23.4,0,0,0,0-8.63c-.34-1.9-3.23-1.09-2.89.8Z" transform="translate(-127.04 -144.43)"/><path class="cls-1" d="M573.63,204.42a29.94,29.94,0,0,1,.74,3.63,1.5,1.5,0,0,0,1.84,1,1.53,1.53,0,0,0,1-1.84,29.9,29.9,0,0,0-.73-3.63,1.51,1.51,0,0,0-2.9.8Z" transform="translate(-127.04 -144.43)"/><path class="cls-1" d="M577.14,206.43a3.36,3.36,0,0,0,.3-2.16,1.52,1.52,0,0,0-1.85-1.05,1.54,1.54,0,0,0-1,1.85.26.26,0,0,1,0-.21q-.07.25,0,.06a1.5,1.5,0,1,0,2.59,1.51Z" transform="translate(-127.04 -144.43)"/><path class="cls-1" d="M571.13,189.7a60.46,60.46,0,0,1,2,15.55c.08,3.86-.47,7.94.65,11.67.56,1.85,3.45,1.06,2.9-.8-1.35-4.48-.42-9.82-.67-14.47a57.36,57.36,0,0,0-2-12.75,1.51,1.51,0,0,0-2.9.8Z" transform="translate(-127.04 -144.43)"/><path class="cls-1" d="M575.08,195.2a122.2,122.2,0,0,1,1.81,14.64c.17,3,1.32,8.33-.37,11-1.46,2.36-3.93,3.48-5.26,6.23-.7,1.45-2,3.93-1.37,5.63,1,2.84,3.79,2.06,5.15,0a11.47,11.47,0,0,0,1.29-7.38c-.31-2.05-1.58-3.79-2.18-5.77a24.23,24.23,0,0,1-.95-4.78,1.73,1.73,0,0,1,1.31,2.12l1.82.23c-2.15-2.29-1.05-6.6.19-8.92l-2.74-.35a11.73,11.73,0,0,1,.14,7.5h2.89c-.47-3.43-.85-6.89-1-10.35,0-1-.13-2.07-.1-3.11a8,8,0,0,1,.69-3.89q1.14-2.19-.48-.47l2.94.4c-.25-3.6-1.65-14.63,2-16.88l-2.21-.9.36,2.74a1.5,1.5,0,0,0,3,0,28.58,28.58,0,0,0-1.16-9.33,1.5,1.5,0,0,0-2.89.8,26.23,26.23,0,0,1,1.05,8.53h3a28.1,28.1,0,0,0-.46-3.54,1.52,1.52,0,0,0-2.21-.9c-5.36,3.34-3.82,14.22-3.46,19.48.12,1.62,2.52,2.13,3,.4s.7-3.16-.26-4.64a1.5,1.5,0,0,0-1.29-.75c-7.74.61-3.87,19-3.29,23.2.22,1.55,2.52,1.31,2.89,0a14.35,14.35,0,0,0-.14-9.09,1.52,1.52,0,0,0-2.74-.36c-1.94,3.62-2.86,9.22.28,12.55a1.56,1.56,0,0,0,1.82.24c4-1.72.36-10.68-4.21-8.24s.41,15.8,4.28,17.17a1.52,1.52,0,0,0,1.46-.38c1.89-1.63,3.11-7.46-.06-8.58-4.26-1.51-3.91,5.77-4.07,7.55-.54,5.83-1.23,4.6.75.89,1-1.93,2.59-3.14,4.09-4.63a5.54,5.54,0,0,0,1.79-4c.94-8-.65-17-2.09-24.91-.35-1.9-3.24-1.09-2.89.8Z" transform="translate(-127.04 -144.43)"/><path class="cls-1" d="M577.3,575.35c.23-5.49-.41-10.93-.48-16.41s.59-10.85,1-16.25c.15-1.92-2.85-1.91-3,0-.42,5.4-1.08,10.83-1,16.25s.71,10.92.48,16.41c-.09,1.93,2.91,1.93,3,0Z" transform="translate(-127.04 -144.43)"/><path class="cls-1" d="M577.73,547.67a48.51,48.51,0,0,0-.58-8.6l-2.89.8c.82,4.53-.13,7.42-.71,11.78-.54,4.14.24,8.29-.43,12.44-.3,1.89,2.59,2.7,2.89.8.81-5-.17-10.14,1-15.12a24.45,24.45,0,0,0,.15-10.7c-.35-1.91-3.18-1.07-2.89.8a44.3,44.3,0,0,1,.47,7.8c0,1.93,3,1.93,3,0Z" transform="translate(-127.04 -144.43)"/><path class="cls-1" d="M577.05,555.44c2.46-9,.54-18.52-.44-27.64a1.5,1.5,0,0,0-3,0c-.49,6.74-.82,13.48-.94,20.23,0,2.87-.12,5.76.09,8.62.27,3.58,1.4,7.1.57,10.67-.36,1.58,2,2.76,2.74,1.16,2.6-5.45.53-11,1.16-16.8.21-1.92-2.79-1.9-3,0-.55,5,1.53,10.5-.75,15.28l2.75,1.16c1.33-5.79-.65-12.21-.59-18.16.08-7.39.43-14.78,1-22.16h-3c.95,8.78,2.92,18.15.55,26.84a1.5,1.5,0,0,0,2.89.8Z" transform="translate(-127.04 -144.43)"/><path class="cls-1" d="M576.62,551.73c2.14-6.42.87-12.72.2-19.29s1.92-13.26.22-19.65a1.5,1.5,0,0,0-2.89.8c1.56,5.87-.95,12.71-.33,18.85s1.95,12.34-.09,18.49c-.61,1.84,2.29,2.63,2.89.8Z" transform="translate(-127.04 -144.43)"/><path class="cls-1" d="M577.13,520.25a8.47,8.47,0,0,0,.13-4.47,13.27,13.27,0,0,1,.19-5.88,1.51,1.51,0,0,0-2.9-.8,15.39,15.39,0,0,0-.56,5c.14,1.81.88,3.57.25,5.35s2.25,2.61,2.89.8Z" transform="translate(-127.04 -144.43)"/><path class="cls-1" d="M575.6,510.44a1,1,0,0,1-.52-.52l.39-1.46-.06.06.67-.39.23,0,.76.2-.07,0,.54.54,0-.07a1.5,1.5,0,0,0-2.59,1.51,1.69,1.69,0,0,0,2.91,0c.66-1.12-.32-2.44-1.42-2.72a1.5,1.5,0,0,0-.8,2.89Z" transform="translate(-127.04 -144.43)"/><path class="cls-1" d="M577.91,516.94l-1-4c-.39-1.61-3.08-1.32-2.94.39.55,6.82-1.45,13.4-1.34,20.19a69.85,69.85,0,0,0,1,7.9c.48,3.63-.29,7.15.37,10.71.36,1.89,3.25,1.09,2.9-.8-.54-2.86.21-5.91-.12-8.83-.4-3.63-1.23-7.13-1.1-10.81.22-6.19,1.81-12.13,1.31-18.36l-3,.4,1,4c.47,1.87,3.36,1.08,2.9-.8Z" transform="translate(-127.04 -144.43)"/><path class="cls-1" d="M579,554.67a1.5,1.5,0,0,0,0-3,1.5,1.5,0,0,0,0,3Z" transform="translate(-127.04 -144.43)"/><path class="cls-1" d="M577.52,554.33a10.84,10.84,0,0,1-.84,4.4,1.57,1.57,0,0,0,.54,2.06,1.52,1.52,0,0,0,2-.54,14.53,14.53,0,0,0,1.25-5.92,1.5,1.5,0,0,0-3,0Z" transform="translate(-127.04 -144.43)"/><path class="cls-1" d="M575.4,561.78a5.24,5.24,0,0,0-.6,3.34h3l-.41-15.49c-.12-4.53.92-8.71,1.07-13.18h-3A68.75,68.75,0,0,1,573,557.9l3,.4.15-19.9h-3l.07,16.62h3c-.14-7.58-.29-15.17.06-22.75.34-7.31,1.83-14.61,1.37-21.93-.12-1.92-3.12-1.93-3,0,.46,7.32-1,14.62-1.37,21.93-.35,7.58-.2,15.17-.06,22.75a1.5,1.5,0,0,0,3,0l-.07-16.62a1.5,1.5,0,0,0-3,0L573,558.3a1.51,1.51,0,0,0,2.95.4,71.12,71.12,0,0,0,2.54-22.25,1.5,1.5,0,0,0-3,0c-.15,4.51-1.19,8.58-1.07,13.18l.41,15.49c.05,1.92,3,1.93,3,0l.5-2.54c.72-1.79-2.18-2.57-2.9-.8Z" transform="translate(-127.04 -144.43)"/><path class="cls-1" d="M574.31,543.37c1.74,5.68.45,10.74-.29,16.45-.47,3.6.36,6.19,1.53,9.63.61,1.82,3.51,1,2.89-.79-1-2.86-1.79-4.89-1.53-8,.16-1.87.68-3.76.93-5.62a28.19,28.19,0,0,0-.63-12.43c-.57-1.84-3.46-1.06-2.9.8Z" transform="translate(-127.04 -144.43)"/><path class="cls-1" d="M576.17,159.17a1.5,1.5,0,0,0,0-3,1.5,1.5,0,0,0,0,3Z" transform="translate(-127.04 -144.43)"/><path class="cls-1" d="M575.83,157.5a1.5,1.5,0,0,0,0-3,1.5,1.5,0,0,0,0,3Z" transform="translate(-127.04 -144.43)"/><path class="cls-1" d="M576.17,149.67a1.5,1.5,0,0,0,0-3,1.5,1.5,0,0,0,0,3Z" transform="translate(-127.04 -144.43)"/><rect class="cls-3" x="449" y="2.45" width="0.44" height="0.01"/><polyline class="cls-3" points="448.47 5.61 448.47 6.91 449.12 6.91"/><rect class="cls-3" x="447.9" y="4.01" width="2.41" height="14.88"/><rect class="cls-3" x="449.21" y="7.85" width="2.41" height="14.88"/><rect class="cls-3" x="448.8" y="6.39" width="1.01" height="1.25"/><polygon class="cls-1" points="448.06 9.04 448.06 9.04 448.06 9.04 448.06 9.04 448.06 9.04"/></svg>